<svg width="104" height="105" viewBox="0 0 104 105" fill="none" xmlns="http://www.w3.org/2000/svg">
<path d="M72.8313 54.9584C83.4667 54.9584 92.0883 46.2539 92.0883 35.5162C92.0883 24.7786 83.4667 16.074 72.8313 16.074C62.1959 16.074 53.5742 24.7786 53.5742 35.5162C53.5742 46.2539 62.1959 54.9584 72.8313 54.9584Z" fill="#0336DB"/>
<path d="M72.8313 66.0327C89.4979 66.0327 103.057 52.3431 103.057 35.5164C103.057 18.6896 89.4979 5 72.8313 5C56.1647 5 42.6055 18.6896 42.6055 35.5164C42.6055 52.3431 56.1647 66.0327 72.8313 66.0327ZM72.8313 9.10156C87.2576 9.10156 98.9946 20.9512 98.9946 35.5164C98.9946 50.0815 87.2578 61.9311 72.8313 61.9311C58.4049 61.9311 46.668 50.0815 46.668 35.5164C46.668 20.9512 58.4047 9.10156 72.8313 9.10156Z" fill="black"/>
<path d="M69.42 40.6376C68.7161 39.7555 67.4377 39.6167 66.5638 40.3271C65.6902 41.0377 65.5527 42.3286 66.2563 43.2107C67.3761 44.614 68.9814 45.4114 70.5804 45.7934C70.6655 46.8469 71.5394 47.675 72.6048 47.675C73.6198 47.675 74.4609 46.9234 74.6118 45.9413C77.4727 45.4257 79.4801 43.5027 79.8094 40.8847C80.1921 37.8436 78.2382 34.9272 75.0581 33.7922C74.9133 33.7406 74.7727 33.6901 74.636 33.6407V29.6897C74.8052 29.7986 74.9314 29.9175 75.0114 30.0323C75.6553 30.9595 76.9222 31.1841 77.8409 30.5331C78.7593 29.8826 78.9813 28.6036 78.3367 27.6764C77.598 26.6131 76.3077 25.7109 74.6348 25.3393C74.5986 24.2387 73.7037 23.3577 72.6048 23.3577C71.4829 23.3577 70.5735 24.2758 70.5735 25.4084V25.4771C70.4488 25.5102 70.3233 25.5456 70.1969 25.5842C68.0645 26.2329 66.4554 28.3179 66.2837 30.655C66.1131 32.9775 67.3306 34.992 69.5404 36.044C69.7813 36.1589 70.1333 36.309 70.5733 36.4859V41.4853C70.1075 41.2737 69.7029 40.9921 69.42 40.6376ZM75.7792 40.3679C75.7036 40.9685 75.3008 41.4273 74.636 41.6992V38.1368C75.5283 38.7697 75.8676 39.6665 75.7792 40.3679ZM70.3355 30.9583C70.3548 30.6937 70.4417 30.4316 70.5737 30.2028V31.8065C70.3899 31.5659 70.3113 31.2846 70.3355 30.9583Z" fill="white"/>
<path d="M103.992 74.7546C103.885 72.2652 102.741 70.1246 100.772 68.7274C97.5268 66.4246 93.1466 66.8245 90.3563 69.6779C90.2669 69.7694 90.1861 69.8691 90.1152 69.9759L85.659 76.6789C84.4114 73.7059 81.5128 71.6173 78.1452 71.6173L46.0856 71.5956H46.0842C45.5979 71.5956 45.1281 71.7716 44.7596 72.0917L36.728 79.0678H30.8669V77.2654C30.8669 76.1328 29.9573 75.2146 28.8356 75.2146H19.892V74.9341C19.892 73.8014 18.9824 72.8833 17.8608 72.8833H2.03125C0.909391 72.8833 0 73.8014 0 74.9341V98.9852C0 100.118 0.909391 101.036 2.03125 101.036H17.8608C18.9824 101.036 19.892 100.118 19.892 98.9852V98.7047H28.8354C29.9571 98.7047 30.8667 97.7865 30.8667 96.6539V94.7602H37.6017L43.6861 101.272C44.0702 101.683 44.6048 101.916 45.1636 101.916C45.1732 101.916 45.1827 101.916 45.1923 101.915L87.1404 101.321C87.7949 101.312 88.4049 100.985 88.7788 100.443L102.107 81.1194C102.115 81.1073 102.124 81.095 102.132 81.0829C103.422 79.1234 104.083 76.876 103.992 74.7546ZM15.8295 96.9344H4.0625V76.9849H15.8295V96.9344ZM26.8042 94.6033H19.892V79.3162H26.8042V94.6033ZM98.7604 78.7943L86.0409 97.2351L46.0285 97.8017L39.9559 91.3024C39.572 90.8916 39.0376 90.6588 38.4784 90.6588H30.8669V83.1694H37.4816C37.9679 83.1694 38.4378 82.9934 38.8062 82.6733L46.8372 75.6978L78.1438 75.7191C80.4081 75.7191 82.2502 77.6132 82.2502 79.9415C82.2502 82.2695 80.4082 84.1634 78.1438 84.1634C78.1385 84.1634 78.1332 84.1636 78.128 84.1636H60.6105C60.0531 84.1636 59.5201 84.3949 59.1364 84.8035L54.863 89.3541C54.0912 90.1761 54.1255 91.474 54.9396 92.2533C55.3325 92.6292 55.835 92.8159 56.3367 92.8159C56.8748 92.8159 57.4119 92.6014 57.8112 92.176L61.4837 88.2652L81.7651 88.266H81.7657C82.4426 88.266 83.0751 87.9256 83.4523 87.3581L93.3713 72.4385C94.7653 71.1268 96.8681 70.9701 98.4362 72.0833C100.553 73.5851 100.202 76.5921 98.7604 78.7943Z" fill="black"/>
</svg>
